<svg width="64" height="64" viewBox="0 0 64 64" fill="none" xmlns="http://www.w3.org/2000/svg">
  <rect width="64" height="64" rx="18" fill="url(#bg)" />
  <path d="M18 21.5C18 19.567 19.567 18 21.5 18H34.8C35.728 18 36.617 18.3687 37.2732 19.0248L45.9752 27.7268C46.6313 28.383 47 29.2719 47 30.2V42.5C47 44.433 45.433 46 43.5 46H21.5C19.567 46 18 44.433 18 42.5V21.5Z" fill="white" fill-opacity="0.96"/>
  <path d="M36 18.4V27C36 28.1046 36.8954 29 38 29H46.6" stroke="#1D4ED8" stroke-width="3" stroke-linecap="round" stroke-linejoin="round"/>
  <path d="M24 36H40" stroke="#0F766E" stroke-width="3.5" stroke-linecap="round"/>
  <path d="M24 30H31" stroke="#1D4ED8" stroke-width="3.5" stroke-linecap="round"/>
  <path d="M24 42H36" stroke="#1D4ED8" stroke-width="3.5" stroke-linecap="round"/>
  <defs>
    <linearGradient id="bg" x1="8" y1="6" x2="57" y2="58" gradientUnits="userSpaceOnUse">
      <stop stop-color="#0F766E"/>
      <stop offset="1" stop-color="#1D4ED8"/>
    </linearGradient>
  </defs>
</svg>
